<svg id="visual" viewBox="0 0 900 600" width="900" height="600" xmlns="http://www.w3.org/2000/svg" xmlns:xlink="http://www.w3.org/1999/xlink" version="1.1"><rect x="0" y="0" width="900" height="600" fill="#F8D9D6"></rect><path d="M0 211L18.8 217.8C37.7 224.7 75.3 238.3 112.8 236.3C150.3 234.3 187.7 216.7 225.2 213.5C262.7 210.3 300.3 221.7 337.8 231.5C375.3 241.3 412.7 249.7 450.2 253.8C487.7 258 525.3 258 562.8 248.3C600.3 238.7 637.7 219.3 675.2 222C712.7 224.7 750.3 249.3 787.8 265.7C825.3 282 862.7 290 881.3 294L900 298L900 0L881.3 0C862.7 0 825.3 0 787.8 0C750.3 0 712.7 0 675.2 0C637.7 0 600.3 0 562.8 0C525.3 0 487.7 0 450.2 0C412.7 0 375.3 0 337.8 0C300.3 0 262.7 0 225.2 0C187.7 0 150.3 0 112.8 0C75.3 0 37.7 0 18.8 0L0 0Z" fill="#84c3c8"></path><path d="M0 122L18.8 135.8C37.7 149.7 75.3 177.3 112.8 177C150.3 176.7 187.7 148.3 225.2 136.8C262.7 125.3 300.3 130.7 337.8 140.5C375.3 150.3 412.7 164.7 450.2 169.8C487.7 175 525.3 171 562.8 170.7C600.3 170.3 637.7 173.7 675.2 180C712.7 186.3 750.3 195.7 787.8 200.8C825.3 206 862.7 207 881.3 207.5L900 208L900 0L881.3 0C862.7 0 825.3 0 787.8 0C750.3 0 712.7 0 675.2 0C637.7 0 600.3 0 562.8 0C525.3 0 487.7 0 450.2 0C412.7 0 375.3 0 337.8 0C300.3 0 262.7 0 225.2 0C187.7 0 150.3 0 112.8 0C75.3 0 37.7 0 18.8 0L0 0Z" fill="#64aab2"></path><path d="M0 123L18.8 118C37.7 113 75.3 103 112.8 95.5C150.3 88 187.7 83 225.2 75.5C262.7 68 300.3 58 337.8 54.2C375.3 50.3 412.7 52.7 450.2 58.5C487.7 64.3 525.3 73.7 562.8 82.7C600.3 91.7 637.7 100.3 675.2 104.8C712.7 109.3 750.3 109.7 787.8 101.3C825.3 93 862.7 76 881.3 67.5L900 59L900 0L881.3 0C862.7 0 825.3 0 787.8 0C750.3 0 712.7 0 675.2 0C637.7 0 600.3 0 562.8 0C525.3 0 487.7 0 450.2 0C412.7 0 375.3 0 337.8 0C300.3 0 262.7 0 225.2 0C187.7 0 150.3 0 112.8 0C75.3 0 37.7 0 18.8 0L0 0Z" fill="#42929d"></path></svg>